<svg id="Layer_1" data-name="Layer 1" xmlns="http://www.w3.org/2000/svg" viewBox="0 0 67.1 62.78"><defs><style>.cls-1{fill:#0021de;}.cls-2{fill:#fff;stroke:#0021de;stroke-width:1.17px;}.cls-2,.cls-3,.cls-4{stroke-miterlimit:10;}.cls-3,.cls-4{fill:none;stroke-width:2px;}.cls-3{stroke:#97a8d3;}.cls-4{stroke:#c1c6d1;}.cls-5{fill:#c1c6d1;}</style></defs><title>icones Cátia</title><path class="cls-1" d="M25.49,8.48A24.17,24.17,0,0,1,49.66,32.64v-.11H25.49v-24Z"/><path class="cls-2" d="M38.88,29C34.56,33.32,26,31.9,26,31.9s-.83-8,3.49-12.28,12.15-3.37,12.15-3.37S43.2,24.68,38.88,29Z"/><path class="cls-1" d="M25.49,32.44c-2.55,0-7.6,0-9.67,0,0,2.6,4.23,1.76,5.88,3.34,2.36,2.25.61,6.45,3.79,6.56C25.59,38.38,25.5,32.44,25.49,32.44Z"/><path class="cls-3" d="M11.63,32.58C11.53,36.24,13.77,37,15,37a5.36,5.36,0,0,1,3.83,1.81,6.54,6.54,0,0,1,1.32,3.82c.31,2.26,2.39,3,4.94,3.08"/><path class="cls-4" d="M6.26,32.77c0,1.54-.16,7.3,6.11,8.07,1.71.21,3.54,1.74,3.8,4.71.4,4.66,6.68,5,8.93,5"/><circle class="cls-1" cx="37.92" cy="20.35" r="1.32"/><path class="cls-1" d="M28.82,42a4.2,4.2,0,0,1-1.33-.61L28,40.19a4.37,4.37,0,0,0,2.48.73,2.17,2.17,0,0,0,1.09-.22.67.67,0,0,0,.39-.61.63.63,0,0,0-.35-.55,5.24,5.24,0,0,0-1.25-.38,7,7,0,0,1-1.61-.47,2.14,2.14,0,0,1-.87-.68,1.82,1.82,0,0,1-.28-1A1.87,1.87,0,0,1,28,35.83,2.4,2.4,0,0,1,29.09,35a4,4,0,0,1,1.6-.29,5.4,5.4,0,0,1,1.56.22,3.24,3.24,0,0,1,1.19.61L32.9,36.7A3.81,3.81,0,0,0,30.7,36a2,2,0,0,0-1,.24.76.76,0,0,0-.37.67.59.59,0,0,0,.14.4,1.17,1.17,0,0,0,.49.29,6.57,6.57,0,0,0,1,.25,5.69,5.69,0,0,1,2.11.8A1.6,1.6,0,0,1,33.64,40a1.91,1.91,0,0,1-.83,1.62,4,4,0,0,1-2.33.59A6.1,6.1,0,0,1,28.82,42Z"/><path class="cls-1" d="M41.1,34.82h1.31v7.26H40.93V37.77l-1.75,3.11H38.1l-1.75-3.06v4.26H34.87V34.82H36.2l2.45,4.44Z"/><path class="cls-1" d="M49.75,42.08,49,40.47H45.48l-.72,1.61H43.07l3.49-7.26h1.35l3.5,7.26ZM46,39.26h2.44l-1.22-2.72Z"/><path class="cls-1" d="M58.66,42.08H56.82l-1.31-2.32a1,1,0,0,0-.39-.39,1.38,1.38,0,0,0-.57-.11h-.84v2.82H52.05V34.82h3.5a3.14,3.14,0,0,1,2,.56A2,2,0,0,1,58.26,37a2,2,0,0,1-.48,1.38,2.29,2.29,0,0,1-1.36.73,1.68,1.68,0,0,1,1,.82ZM56.35,37.8a1.06,1.06,0,0,0,0-1.52A1.81,1.81,0,0,0,55.3,36H53.69v2H55.3A1.81,1.81,0,0,0,56.35,37.8Z"/><path class="cls-1" d="M61.17,42.08V36.13H58.78V34.82h6.46v1.31H62.85v5.95Z"/><path class="cls-5" d="M33.63,51.57,32.9,50H29.36l-.72,1.61h-1.7l3.5-7.26h1.35l3.5,7.26Zm-3.72-2.82h2.44L31.13,46Z"/><path class="cls-5" d="M41.51,51.5a2,2,0,0,1,.38.43l.81,1.26-1.44.63-1.12-1.75a1,1,0,0,0-.93-.41,4,4,0,0,1-2-.46A3.09,3.09,0,0,1,36,49.91,4.56,4.56,0,0,1,36,46a3.09,3.09,0,0,1,1.29-1.29,4.54,4.54,0,0,1,3.94,0A3.09,3.09,0,0,1,42.47,46a4.12,4.12,0,0,1,.46,2,4.17,4.17,0,0,1-.49,2A3.1,3.1,0,0,1,41,51.26,1.31,1.31,0,0,1,41.51,51.5Zm-.8-1.72a2.8,2.8,0,0,0,.54-1.85,2.74,2.74,0,0,0-.54-1.83,1.85,1.85,0,0,0-1.5-.64,1.81,1.81,0,0,0-1.49.64,2.74,2.74,0,0,0-.54,1.83,2.8,2.8,0,0,0,.54,1.85,1.87,1.87,0,0,0,1.49.64A1.89,1.89,0,0,0,40.71,49.78Z"/><path class="cls-5" d="M45,50.87a3,3,0,0,1-.83-2.3V44.31h1.65v4.33A1.91,1.91,0,0,0,46.23,50a1.54,1.54,0,0,0,1.21.46A1.57,1.57,0,0,0,48.65,50a1.9,1.9,0,0,0,.42-1.32V44.31h1.65v4.26a3,3,0,0,1-.84,2.3,3.43,3.43,0,0,1-2.44.79A3.41,3.41,0,0,1,45,50.87Z"/><path class="cls-5" d="M58,51.57,57.22,50H53.68L53,51.57h-1.7l3.5-7.26h1.35l3.5,7.26Zm-3.72-2.82h2.44L55.45,46Z"/></svg>