<svg id="Layer_1" data-name="Layer 1" xmlns="http://www.w3.org/2000/svg" viewBox="0 0 50 50"><title>icones Cátia</title><path d="M20.74,26.62h20.4L37,30.78a1.69,1.69,0,0,0,0,2.39h0a1.69,1.69,0,0,0,2.39,0l7.1-7.06a1.7,1.7,0,0,0,0-2.41l-7.1-7.06a1.69,1.69,0,0,0-2.39,0h0a1.69,1.69,0,0,0,0,2.39l4.15,4.16H20.74a1.69,1.69,0,0,0-1.69,1.69v0A1.69,1.69,0,0,0,20.74,26.62Z"/><path d="M29.58,41H9.42A2.83,2.83,0,0,1,6.6,38.13V11.7A2.83,2.83,0,0,1,9.42,8.88H29.58A2.82,2.82,0,0,1,32.4,11.7v7.52a1,1,0,0,1-2,0V11.7a.82.82,0,0,0-.82-.82H9.42a.82.82,0,0,0-.82.82V38.13a.82.82,0,0,0,.82.82H29.58a.82.82,0,0,0,.82-.82V30.61a1,1,0,0,1,2,0v7.52A2.82,2.82,0,0,1,29.58,41Z"/></svg>