<svg id="Layer_1" data-name="Layer 1" xmlns="http://www.w3.org/2000/svg" viewBox="0 0 50 50"><title>icones aquacultura</title><path d="M42.89,6A7.1,7.1,0,0,0,37,4.23,13.45,13.45,0,0,0,30.43,7.6L8.3,29.73,6.2,43.86l13.87-1.81L41.94,20.17c.16-.14,3.91-3.33,4.05-7.25A9,9,0,0,0,42.89,6Zm-5.58.16a5.11,5.11,0,0,1,4.27,1.35A6.92,6.92,0,0,1,44,12.85a7.86,7.86,0,0,1-2.07,4.48l-9.23-9A11.13,11.13,0,0,1,37.31,6.2Zm-21,29.32L36.77,15.08l3.76,3.68L20.09,39.2ZM31.21,9.65l4.12,4L14.9,34.12l-4.13-4ZM10,32.1l8.35,8.16L8.57,41.53Z"/></svg>