<svg id="Layer_1" data-name="Layer 1" xmlns="http://www.w3.org/2000/svg" viewBox="0 0 50 50"><title>icones Cátia</title><path d="M33.56,46.68H17a5.58,5.58,0,0,1-5.57-5.57V17.65a1,1,0,0,1,2,0V41.11A3.57,3.57,0,0,0,17,44.68H33.56a3.57,3.57,0,0,0,3.57-3.57V17.65a1,1,0,0,1,2,0V41.11A5.58,5.58,0,0,1,33.56,46.68Z"/><path d="M37.46,18.18H13.12a4,4,0,0,1,0-8H37.46a4,4,0,0,1,0,8Zm-24.34-6a2,2,0,0,0,0,4H37.46a2,2,0,0,0,0-4Z"/><path d="M32.09,11.63a1,1,0,0,1-.94-1.33,4,4,0,0,0,.11-1.38V8.49A2.2,2.2,0,0,0,29.07,6.3H21.85a2.19,2.19,0,0,0-2.19,2.19c0,.19,0,.42,0,.67a13.72,13.72,0,0,1,0,1.59,1,1,0,0,1-2-.23c0-.27,0-.85,0-1.31,0-.26,0-.51,0-.72A4.2,4.2,0,0,1,21.85,4.3h7.22a4.2,4.2,0,0,1,4.19,4.19v.42A5.68,5.68,0,0,1,33,11,1,1,0,0,1,32.09,11.63Z"/><path d="M19.84,41.35a1,1,0,0,1-1-1v-18a1,1,0,0,1,2,0v18A1,1,0,0,1,19.84,41.35Z"/><path d="M25.29,41.35a1,1,0,0,1-1-1v-18a1,1,0,0,1,2,0v18A1,1,0,0,1,25.29,41.35Z"/><path d="M30.75,41.35a1,1,0,0,1-1-1v-18a1,1,0,0,1,2,0v18A1,1,0,0,1,30.75,41.35Z"/></svg>