<svg id="Layer_1" data-name="Layer 1" xmlns="http://www.w3.org/2000/svg" viewBox="0 0 67.1 62.78"><defs><style>.cls-1,.cls-3{fill:#0021de;}.cls-2{fill:#fff;}.cls-3{stroke:#fff;stroke-width:1.17px;}.cls-3,.cls-4,.cls-5{stroke-miterlimit:10;}.cls-4,.cls-5{fill:none;stroke-width:2px;}.cls-4{stroke:#97a8d3;}.cls-5{stroke:#c1c6d1;}.cls-6{fill:#c1c6d1;}</style></defs><title>icones Cátia</title><rect class="cls-1" x="-0.78" y="-0.79" width="70.75" height="66.51"/><path class="cls-2" d="M24.47,6.47A24.17,24.17,0,0,1,48.63,30.64v-.12H24.47v-24Z"/><path class="cls-3" d="M37.86,27C33.54,31.32,25,29.89,25,29.89s-.82-7.95,3.5-12.27,12.15-3.37,12.15-3.37S42.18,22.68,37.86,27Z"/><path class="cls-2" d="M24.46,30.44c-2.54,0-7.59,0-9.66,0,0,2.6,4.23,1.77,5.88,3.34,2.35,2.26.61,6.46,3.79,6.56C24.57,36.38,24.47,30.44,24.46,30.44Z"/><path class="cls-4" d="M10.6,30.58C10.51,34.23,12.75,34.94,14,35a5.31,5.31,0,0,1,3.82,1.8,6.52,6.52,0,0,1,1.33,3.83c.31,2.25,2.39,3,4.94,3.08"/><path class="cls-5" d="M5.24,30.76c0,1.54-.16,7.3,6.11,8.07,1.71.22,3.54,1.74,3.79,4.72.4,4.66,6.69,5,8.94,5"/><circle class="cls-2" cx="36.9" cy="18.34" r="1.32"/><path class="cls-2" d="M27.8,39.94a3.9,3.9,0,0,1-1.33-.61L27,38.19a4.34,4.34,0,0,0,2.47.73,2.21,2.21,0,0,0,1.1-.22.67.67,0,0,0,.38-.61.59.59,0,0,0-.35-.55,4.68,4.68,0,0,0-1.25-.38,7.4,7.4,0,0,1-1.6-.47,2.09,2.09,0,0,1-.87-.69,1.71,1.71,0,0,1-.28-1A2,2,0,0,1,27,33.82,2.66,2.66,0,0,1,28.07,33a4.15,4.15,0,0,1,1.6-.29,5.4,5.4,0,0,1,1.56.23,3.1,3.1,0,0,1,1.19.61l-.54,1.14a3.77,3.77,0,0,0-2.2-.73,1.93,1.93,0,0,0-1,.24.75.75,0,0,0-.38.66.58.58,0,0,0,.15.41,1.17,1.17,0,0,0,.49.28,6.18,6.18,0,0,0,1,.26,5.63,5.63,0,0,1,2.11.79A1.59,1.59,0,0,1,32.61,38a1.86,1.86,0,0,1-.83,1.62,3.88,3.88,0,0,1-2.32.6A6.1,6.1,0,0,1,27.8,39.94Z"/><path class="cls-2" d="M40.08,32.81h1.3v7.26H39.9v-4.3l-1.75,3.11H37.08l-1.75-3.07v4.26H33.85V32.81h1.32l2.46,4.44Z"/><path class="cls-2" d="M48.73,40.07,48,38.47H44.46l-.72,1.6H42l3.5-7.26h1.35l3.5,7.26ZM45,37.25h2.44l-1.22-2.72Z"/><path class="cls-2" d="M57.64,40.07H55.8l-1.32-2.31a1,1,0,0,0-.39-.39,1.2,1.2,0,0,0-.57-.12h-.83v2.82H51V32.81h3.5a3.16,3.16,0,0,1,2,.56A2,2,0,0,1,57.24,35a2,2,0,0,1-.48,1.38,2.37,2.37,0,0,1-1.36.73,1.59,1.59,0,0,1,1,.81Zm-2.32-4.28a1,1,0,0,0,0-1.51,1.75,1.75,0,0,0-1-.24H52.67v2h1.61A1.67,1.67,0,0,0,55.32,35.79Z"/><path class="cls-2" d="M60.14,40.07v-6H57.76V32.81h6.45v1.31H61.83v6Z"/><path class="cls-6" d="M32.6,49.56,31.88,48H28.34l-.73,1.6H25.92l3.5-7.26h1.35l3.5,7.26Zm-3.71-2.82h2.44L30.11,44Z"/><path class="cls-6" d="M40.48,49.49a2.36,2.36,0,0,1,.39.43l.81,1.26-1.44.64-1.12-1.75a1,1,0,0,0-.93-.41,4.1,4.1,0,0,1-2-.46,3.17,3.17,0,0,1-1.29-1.3,4.45,4.45,0,0,1,0-3.94,3.17,3.17,0,0,1,1.29-1.3,4.54,4.54,0,0,1,3.94,0A3.17,3.17,0,0,1,41.45,44a4.09,4.09,0,0,1,.45,2,4,4,0,0,1-.49,2A3.07,3.07,0,0,1,40,49.26,1.09,1.09,0,0,1,40.48,49.49Zm-.8-1.72a2.71,2.71,0,0,0,.55-1.84,2.77,2.77,0,0,0-.54-1.84,2.1,2.1,0,0,0-3,0,2.82,2.82,0,0,0-.53,1.84,2.77,2.77,0,0,0,.54,1.84,2.05,2.05,0,0,0,3,0Z"/><path class="cls-6" d="M44,48.87a3,3,0,0,1-.84-2.3V42.3H44.8v4.34A1.91,1.91,0,0,0,45.21,48a1.84,1.84,0,0,0,2.42,0,1.86,1.86,0,0,0,.42-1.31V42.3H49.7v4.27a3,3,0,0,1-.84,2.29,4.14,4.14,0,0,1-4.88,0Z"/><path class="cls-6" d="M56.92,49.56,56.2,48H52.66l-.73,1.6H50.24l3.5-7.26h1.35l3.5,7.26Zm-3.71-2.82h2.44L54.43,44Z"/></svg>